<svg xmlns="http://www.w3.org/2000/svg" xmlns:xlink="http://www.w3.org/1999/xlink" width="500" zoomAndPan="magnify" viewBox="0 0 375 374.999991" height="500" preserveAspectRatio="xMidYMid meet" version="1.0"><defs><g/><clipPath id="0bfb390876"><path d="M 114 218 L 291 218 L 291 273 L 114 273 Z M 114 218 " clip-rule="nonzero"/></clipPath><clipPath id="b3b27b164d"><path d="M 125.421875 193.835938 L 291.320312 218.613281 L 279.75 296.09375 L 113.851562 271.320312 Z M 125.421875 193.835938 " clip-rule="nonzero"/></clipPath><clipPath id="54099e3691"><path d="M 125.421875 193.835938 L 291.320312 218.613281 L 279.75 296.09375 L 113.851562 271.320312 Z M 125.421875 193.835938 " clip-rule="nonzero"/></clipPath><clipPath id="451c63ba05"><path d="M 35 104.425781 L 122 104.425781 L 122 182.765625 L 35 182.765625 Z M 35 104.425781 " clip-rule="nonzero"/></clipPath></defs><path fill="#2f5972" d="M 374.996094 187.5 C 374.996094 190.566406 374.921875 193.632812 374.773438 196.699219 C 374.621094 199.765625 374.394531 202.824219 374.09375 205.875 C 373.792969 208.929688 373.417969 211.976562 372.96875 215.011719 C 372.519531 218.046875 371.992188 221.066406 371.394531 224.078125 C 370.796875 227.085938 370.125 230.082031 369.378906 233.058594 C 368.632812 236.035156 367.816406 238.992188 366.921875 241.925781 C 366.03125 244.863281 365.070312 247.777344 364.035156 250.664062 C 363.003906 253.554688 361.898438 256.417969 360.726562 259.25 C 359.550781 262.085938 358.308594 264.890625 356.996094 267.664062 C 355.683594 270.4375 354.304688 273.179688 352.859375 275.886719 C 351.410156 278.589844 349.898438 281.261719 348.320312 283.890625 C 346.746094 286.523438 345.101562 289.117188 343.398438 291.667969 C 341.695312 294.21875 339.925781 296.726562 338.097656 299.191406 C 336.269531 301.65625 334.382812 304.074219 332.4375 306.445312 C 330.492188 308.820312 328.488281 311.140625 326.425781 313.414062 C 324.367188 315.6875 322.25 317.910156 320.082031 320.082031 C 317.910156 322.25 315.6875 324.367188 313.414062 326.425781 C 311.140625 328.488281 308.820312 330.492188 306.445312 332.4375 C 304.074219 334.382812 301.65625 336.269531 299.191406 338.097656 C 296.726562 339.925781 294.21875 341.695312 291.667969 343.398438 C 289.117188 345.101562 286.523438 346.742188 283.890625 348.320312 C 281.261719 349.898438 278.589844 351.410156 275.886719 352.859375 C 273.179688 354.304688 270.4375 355.683594 267.664062 356.996094 C 264.890625 358.308594 262.085938 359.550781 259.25 360.726562 C 256.417969 361.898438 253.554688 363.003906 250.664062 364.035156 C 247.777344 365.070312 244.863281 366.03125 241.925781 366.921875 C 238.992188 367.816406 236.035156 368.632812 233.058594 369.378906 C 230.082031 370.125 227.085938 370.796875 224.078125 371.394531 C 221.066406 371.992188 218.046875 372.519531 215.011719 372.96875 C 211.976562 373.417969 208.929688 373.792969 205.875 374.09375 C 202.824219 374.394531 199.765625 374.621094 196.699219 374.773438 C 193.632812 374.921875 190.566406 374.996094 187.5 374.996094 C 184.429688 374.996094 181.363281 374.921875 178.296875 374.773438 C 175.234375 374.621094 172.175781 374.394531 169.121094 374.09375 C 166.066406 373.792969 163.023438 373.417969 159.988281 372.96875 C 156.953125 372.519531 153.929688 371.992188 150.917969 371.394531 C 147.910156 370.796875 144.917969 370.125 141.941406 369.378906 C 138.964844 368.632812 136.007812 367.816406 133.070312 366.921875 C 130.132812 366.03125 127.222656 365.070312 124.332031 364.035156 C 121.441406 363.003906 118.582031 361.898438 115.746094 360.726562 C 112.910156 359.550781 110.105469 358.308594 107.332031 356.996094 C 104.558594 355.683594 101.820312 354.304688 99.113281 352.859375 C 96.40625 351.410156 93.738281 349.898438 91.105469 348.320312 C 88.472656 346.742188 85.882812 345.101562 83.328125 343.398438 C 80.777344 341.695312 78.269531 339.925781 75.804688 338.097656 C 73.339844 336.269531 70.921875 334.382812 68.550781 332.4375 C 66.179688 330.492188 63.855469 328.488281 61.582031 326.425781 C 59.308594 324.367188 57.085938 322.25 54.917969 320.082031 C 52.746094 317.910156 50.632812 315.6875 48.570312 313.414062 C 46.511719 311.140625 44.507812 308.820312 42.558594 306.445312 C 40.613281 304.074219 38.726562 301.65625 36.898438 299.191406 C 35.070312 296.726562 33.304688 294.21875 31.597656 291.667969 C 29.894531 289.117188 28.253906 286.523438 26.675781 283.890625 C 25.097656 281.261719 23.585938 278.589844 22.140625 275.886719 C 20.691406 273.179688 19.3125 270.4375 18 267.664062 C 16.691406 264.890625 15.445312 262.085938 14.273438 259.25 C 13.097656 256.417969 11.996094 253.554688 10.960938 250.664062 C 9.925781 247.777344 8.964844 244.863281 8.074219 241.925781 C 7.183594 238.992188 6.363281 236.035156 5.617188 233.058594 C 4.875 230.082031 4.203125 227.085938 3.601562 224.078125 C 3.003906 221.066406 2.480469 218.046875 2.03125 215.011719 C 1.578125 211.976562 1.203125 208.929688 0.902344 205.875 C 0.601562 202.824219 0.375 199.765625 0.226562 196.699219 C 0.0742188 193.632812 0 190.566406 0 187.5 C 0 184.429688 0.0742188 181.363281 0.226562 178.296875 C 0.375 175.234375 0.601562 172.175781 0.902344 169.121094 C 1.203125 166.066406 1.578125 163.023438 2.03125 159.988281 C 2.480469 156.953125 3.003906 153.929688 3.601562 150.917969 C 4.203125 147.910156 4.875 144.917969 5.617188 141.941406 C 6.363281 138.964844 7.183594 136.007812 8.074219 133.070312 C 8.964844 130.132812 9.925781 127.222656 10.960938 124.332031 C 11.996094 121.441406 13.097656 118.582031 14.273438 115.746094 C 15.445312 112.910156 16.691406 110.105469 18 107.332031 C 19.3125 104.558594 20.691406 101.820312 22.140625 99.113281 C 23.585938 96.40625 25.097656 93.738281 26.675781 91.105469 C 28.253906 88.472656 29.894531 85.882812 31.597656 83.328125 C 33.304688 80.777344 35.070312 78.269531 36.898438 75.804688 C 38.726562 73.339844 40.613281 70.921875 42.558594 68.550781 C 44.507812 66.179688 46.511719 63.855469 48.570312 61.582031 C 50.632812 59.308594 52.746094 57.085938 54.917969 54.917969 C 57.085938 52.746094 59.308594 50.632812 61.582031 48.570312 C 63.855469 46.511719 66.179688 44.507812 68.550781 42.558594 C 70.921875 40.613281 73.339844 38.726562 75.804688 36.898438 C 78.269531 35.070312 80.777344 33.304688 83.328125 31.597656 C 85.882812 29.894531 88.472656 28.253906 91.105469 26.675781 C 93.738281 25.097656 96.40625 23.585938 99.113281 22.140625 C 101.820312 20.691406 104.558594 19.3125 107.332031 18 C 110.105469 16.691406 112.910156 15.445312 115.746094 14.273438 C 118.582031 13.097656 121.441406 11.996094 124.332031 10.960938 C 127.222656 9.925781 130.132812 8.964844 133.070312 8.074219 C 136.007812 7.183594 138.964844 6.363281 141.941406 5.617188 C 144.917969 4.875 147.910156 4.203125 150.917969 3.601562 C 153.929688 3.003906 156.953125 2.480469 159.988281 2.03125 C 163.023438 1.578125 166.066406 1.203125 169.121094 0.902344 C 172.175781 0.601562 175.234375 0.375 178.296875 0.226562 C 181.363281 0.0742188 184.429688 0 187.5 0 C 190.566406 0 193.632812 0.0742188 196.699219 0.226562 C 199.765625 0.375 202.824219 0.601562 205.875 0.902344 C 208.929688 1.203125 211.976562 1.578125 215.011719 2.03125 C 218.046875 2.480469 221.066406 3.003906 224.078125 3.601562 C 227.085938 4.203125 230.082031 4.875 233.058594 5.617188 C 236.035156 6.363281 238.992188 7.183594 241.925781 8.074219 C 244.863281 8.964844 247.777344 9.925781 250.664062 10.960938 C 253.554688 11.996094 256.417969 13.097656 259.25 14.273438 C 262.085938 15.445312 264.890625 16.691406 267.664062 18 C 270.4375 19.3125 273.179688 20.691406 275.886719 22.140625 C 278.589844 23.585938 281.261719 25.097656 283.890625 26.675781 C 286.523438 28.253906 289.117188 29.894531 291.667969 31.597656 C 294.21875 33.304688 296.726562 35.070312 299.191406 36.898438 C 301.65625 38.726562 304.074219 40.613281 306.445312 42.558594 C 308.820312 44.507812 311.140625 46.511719 313.414062 48.570312 C 315.6875 50.632812 317.910156 52.746094 320.082031 54.917969 C 322.25 57.085938 324.367188 59.308594 326.425781 61.582031 C 328.488281 63.855469 330.492188 66.179688 332.4375 68.550781 C 334.382812 70.921875 336.269531 73.339844 338.097656 75.804688 C 339.925781 78.269531 341.695312 80.777344 343.398438 83.328125 C 345.101562 85.882812 346.746094 88.472656 348.320312 91.105469 C 349.898438 93.738281 351.410156 96.40625 352.859375 99.113281 C 354.304688 101.820312 355.683594 104.558594 356.996094 107.332031 C 358.308594 110.105469 359.550781 112.910156 360.726562 115.746094 C 361.898438 118.582031 363.003906 121.441406 364.035156 124.332031 C 365.070312 127.222656 366.03125 130.132812 366.921875 133.070312 C 367.816406 136.007812 368.632812 138.964844 369.378906 141.941406 C 370.125 144.917969 370.796875 147.910156 371.394531 150.917969 C 371.992188 153.929688 372.519531 156.953125 372.96875 159.988281 C 373.417969 163.023438 373.792969 166.066406 374.09375 169.121094 C 374.394531 172.175781 374.621094 175.234375 374.773438 178.296875 C 374.921875 181.363281 374.996094 184.429688 374.996094 187.5 Z M 374.996094 187.5 " fill-opacity="1" fill-rule="nonzero"/><g clip-path="url(#0bfb390876)"><g clip-path="url(#b3b27b164d)"><g clip-path="url(#54099e3691)"><path fill="#f87c56" d="M 114.90625 267.371094 C 118.382812 262.960938 255.34375 209.910156 290.886719 219.375 C 254.371094 222.136719 163.101562 253.636719 134.398438 269.148438 C 136.367188 269.257812 139.003906 269.125 142.632812 268.589844 C 141.542969 270.457031 131.425781 271.929688 126.960938 272.09375 C 119.769531 272.558594 111.828125 271.273438 114.902344 267.390625 Z M 114.90625 267.371094 " fill-opacity="1" fill-rule="nonzero"/></g></g></g><g fill="#f87c56" fill-opacity="1"><g transform="translate(49.682068, 243.457209)"><g><path d="M 46.316406 -56.460938 C 50.398438 -72.429688 47.097656 -92.488281 32.921875 -89.097656 C 31.246094 -88.695312 29.273438 -87.816406 27.011719 -86.457031 C 14.175781 -79.160156 -12.140625 -48.46875 -6.765625 -27.136719 C -3.644531 -14.664062 12.273438 -11.929688 21.566406 -12.382812 C 25.617188 -12.535156 29.835938 -13.132812 33.949219 -13.027344 C 36.265625 -13.039062 39.738281 -13.324219 38.054688 -8.96875 C 36.035156 -3.171875 26.285156 7.339844 21 8.601562 C 19.066406 9.066406 18.140625 8.605469 16.738281 7.304688 C 16.355469 6.851562 15.941406 6.816406 15.683594 6.878906 C 15.167969 7 15.0625 7.707031 15.503906 8.417969 C 17.394531 12.328125 20.816406 14.097656 25.070312 13.082031 C 30.355469 11.816406 35.8125 6.148438 38.808594 2.160156 C 41.8125 -2.371094 46.640625 -12.386719 39.710938 -16.859375 C 30.261719 -23.320312 5.613281 -14.699219 0.480469 -25.324219 C -5.722656 -38.152344 18.839844 -69.917969 24.382812 -74.652344 C 26.75 -76.71875 31.78125 -81.328125 35.90625 -82.316406 C 37.066406 -82.59375 38.15625 -82.582031 39.054688 -82.25 C 43.25 -80.664062 42.808594 -68.839844 39.960938 -57.394531 C 38.65625 -52.585938 33.726562 -35.597656 28.828125 -34.425781 L 28.183594 -34.269531 C 27.796875 -34.179688 27.570312 -33.988281 27.375 -33.667969 C 26.757812 -32.839844 27.554688 -32.347656 28.132812 -32.214844 C 29.128906 -32.042969 30.058594 -32.128906 30.960938 -32.347656 C 39.210938 -34.320312 44.507812 -49.214844 46.316406 -56.460938 Z M 46.316406 -56.460938 "/></g></g></g><g fill="#f87c56" fill-opacity="1"><g transform="translate(99.563606, 231.522457)"><g><path d="M 22.214844 -15.945312 C 21.769531 -16.65625 21.589844 -17.976562 21.742188 -20.191406 C 21.519531 -23.410156 21.835938 -29.480469 23.921875 -32.160156 C 24.796875 -33.050781 24.636719 -33.148438 23.648438 -33.867188 C 21.988281 -35.105469 20.417969 -35.410156 19.128906 -35.101562 C 18.613281 -34.980469 18.128906 -34.726562 17.546875 -34.316406 C 17.683594 -38.300781 17.339844 -42.578125 13.765625 -44.992188 C 12.804688 -45.582031 11.460938 -46.078125 10.171875 -45.769531 C 8.753906 -45.429688 7.390625 -44.285156 5.957031 -42.308594 C -0.265625 -34.140625 -8.503906 -4.78125 2.789062 -2.574219 C 3.65625 -2.375 4.234375 -2.238281 5.007812 -2.425781 C 5.265625 -2.484375 5.492188 -2.675781 5.75 -2.738281 C 8.859375 -5.117188 11.679688 -13.832031 14.035156 -21.074219 C 14.097656 -20.816406 14.128906 -20.6875 14.09375 -20.269531 C 14.410156 -16.667969 15.039062 -12.320312 18.203125 -10.488281 C 19.164062 -9.898438 20.1875 -9.601562 21.347656 -9.878906 C 28.308594 -11.542969 34.679688 -31.054688 36.363281 -35.410156 C 35.636719 -36.734375 35.25 -36.644531 34.21875 -36.394531 C 33.789062 -35.339844 26.429688 -16.542969 23.078125 -15.742188 C 22.820312 -15.679688 22.53125 -15.75 22.214844 -15.945312 Z M 11.6875 -36.59375 C 12.5 -37.742188 13.121094 -38.570312 13.765625 -38.726562 C 14.796875 -38.972656 15.546875 -36.972656 16.050781 -32.59375 C 15.105469 -31.414062 14.769531 -29.972656 14.433594 -28.527344 C 11.238281 -20.8125 7.613281 -9.179688 5.683594 -8.71875 C 3.507812 -9.832031 7.953125 -29.976562 11.6875 -36.59375 Z M 11.6875 -36.59375 "/></g></g></g><g fill="#f87c56" fill-opacity="1"><g transform="translate(131.142349, 223.966866)"><g><path d="M -1.109375 -8.046875 C -0.304688 -4.695312 1.160156 -0.277344 5.542969 -1.324219 C 6.058594 -1.449219 6.511719 -1.832031 6.714844 -2.695312 C 9.535156 -11.410156 22.1875 -45.101562 28.882812 -49.019531 C 30.527344 -49.546875 29.101562 -51.523438 26.652344 -50.9375 C 25.621094 -50.691406 24.519531 -50.15625 23.738281 -48.878906 C 15.960938 -39.796875 6.710938 -11.824219 4.707031 -7.667969 C 3.5 -21.824219 7.097656 -34.132812 10.105469 -39.210938 C 10.234375 -39.242188 8.445312 -40.449219 6.421875 -40.375 L 5.519531 -40.160156 C -0.925781 -38.617188 -2.242188 -13.363281 -1.109375 -8.046875 Z M -1.109375 -8.046875 "/></g></g></g><g fill="#f87c56" fill-opacity="1"><g transform="translate(155.116423, 218.230784)"><g><path d="M -1.109375 -8.046875 C -0.304688 -4.695312 1.160156 -0.277344 5.542969 -1.324219 C 6.058594 -1.449219 6.511719 -1.832031 6.714844 -2.695312 C 9.535156 -11.410156 22.1875 -45.101562 28.882812 -49.019531 C 30.527344 -49.546875 29.101562 -51.523438 26.652344 -50.9375 C 25.621094 -50.691406 24.519531 -50.15625 23.738281 -48.878906 C 15.960938 -39.796875 6.710938 -11.824219 4.707031 -7.667969 C 3.5 -21.824219 7.097656 -34.132812 10.105469 -39.210938 C 10.234375 -39.242188 8.445312 -40.449219 6.421875 -40.375 L 5.519531 -40.160156 C -0.925781 -38.617188 -2.242188 -13.363281 -1.109375 -8.046875 Z M -1.109375 -8.046875 "/></g></g></g><g fill="#f87c56" fill-opacity="1"><g transform="translate(179.090496, 212.494701)"><g><path d="M 1.957031 25.832031 C 3.117188 25.554688 4.441406 24.828125 5.667969 24.261719 C 19.246094 16.652344 22.433594 -18.449219 24.542969 -30.128906 C 25.085938 -32.984375 25.597656 -35.96875 26.171875 -38.695312 C 26.554688 -41.648438 23.246094 -41.8125 21.183594 -41.316406 C 20.152344 -41.070312 19.152344 -40.695312 19.011719 -39.570312 C 17.339844 -32.902344 8.984375 -4.601562 4.957031 -3.773438 C 1.703125 -3.132812 4.921875 -19.300781 5.257812 -20.746094 C 6.234375 -25.203125 7.675781 -31.136719 9.773438 -34.90625 C 10.359375 -35.867188 10.496094 -36.445312 9.605469 -37.320312 C 8.398438 -38.941406 6.410156 -39.28125 4.476562 -38.820312 C 3.574219 -38.601562 3.210938 -37.835938 2.882812 -36.9375 C -0.859375 -29.230469 -4.105469 -13.734375 -1.582031 -5.480469 C -0.714844 -2.417969 1.632812 0.5625 5.402344 -0.203125 C 10.621094 -1.179688 14.3125 -16.507812 15.867188 -20.832031 C 13.714844 -5.324219 9.511719 19.253906 -1.183594 21.816406 C -5.4375 22.832031 -7.46875 20.046875 -8.847656 16.5625 C -9.191406 15.691406 -9.574219 15.238281 -10.378906 15.292969 C -11.339844 15.25 -10.773438 16.476562 -10.492188 17.089844 C -8.492188 22.609375 -4.488281 27.375 1.957031 25.832031 Z M 1.957031 25.832031 "/></g></g></g><g fill="#f87c56" fill-opacity="1"><g transform="translate(209.638096, 205.185824)"><g><path d="M 36.253906 -81.988281 L 37.15625 -82.207031 C 47.167969 -83.648438 35.421875 -47.3125 27.984375 -43.082031 C 27.628906 -42.859375 28.269531 -42.46875 29.300781 -42.714844 C 30.589844 -43.023438 32.65625 -44.0625 35.066406 -47.09375 C 41.769531 -54.964844 47.753906 -71.523438 44.640625 -81.679688 C 42.773438 -87.773438 38.539062 -88.394531 33.253906 -87.132812 C 17.785156 -83.429688 4.054688 -60.523438 -0.0234375 -38.832031 C -3.503906 -19.195312 1.195312 -0.695312 15.324219 0.832031 C 16.964844 0.847656 18.605469 0.863281 20.40625 0.433594 C 31.492188 -2.21875 41.472656 -16.328125 46.589844 -26.273438 C 46.882812 -26.753906 47.734375 -28.320312 46.867188 -28.519531 C 46.578125 -28.585938 46.160156 -28.625 45.902344 -28.5625 C 45.132812 -28.378906 44.542969 -27.417969 44.019531 -26.75 C 39.4375 -18.566406 31.578125 -7.554688 22.300781 -5.335938 C 18.691406 -4.472656 15.386719 -5.179688 12.964844 -7.328125 C -5.070312 -22.90625 18.597656 -77.765625 36.253906 -81.988281 Z M 36.253906 -81.988281 "/></g></g></g><g fill="#f87c56" fill-opacity="1"><g transform="translate(256.039522, 194.08373)"><g><path d="M 37.507812 -37.457031 C 37.34375 -37.007812 35.035156 -31.277344 32.671875 -26.351562 L 32.472656 -26.03125 C 31.390625 -23.726562 24.664062 -10.261719 22.730469 -9.800781 C 22.601562 -9.769531 22.441406 -9.867188 22.441406 -9.867188 C 20.78125 -11.105469 26.4375 -33.035156 26.726562 -36.375 C 26.914062 -39.007812 23.433594 -41.039062 20.46875 -40.328125 C 19.179688 -40.019531 17.882812 -39.164062 17.289062 -37.660156 C 12.179688 -28.261719 8.234375 -19.6875 4.863281 -10.429688 C 6.722656 -28.863281 15.144531 -57.453125 19.453125 -63.933594 C 20.367188 -65.242188 16.828125 -68.074219 13.347656 -67.242188 C 10.769531 -66.625 10.175781 -65.121094 9.378906 -62.75 C 5.425781 -50.222656 -2.476562 -18.894531 -1.0625 -6.152344 C -0.769531 -3.222656 0.648438 -0.699219 4.511719 -1.078125 C 8.128906 -12.164062 13.859375 -25.800781 19.128906 -35.101562 C 17.597656 -30.101562 11.335938 -5.027344 20.917969 -5.414062 C 21.335938 -5.378906 21.625 -5.308594 22.140625 -5.433594 C 25.621094 -6.265625 32.347656 -19.730469 33.828125 -23.21875 C 36.644531 -28.527344 38.605469 -34.582031 39.492188 -36.566406 C 38.988281 -37.535156 38.378906 -37.800781 37.863281 -37.675781 C 37.734375 -37.644531 37.605469 -37.617188 37.507812 -37.457031 Z M 37.507812 -37.457031 "/></g></g></g><g fill="#f87c56" fill-opacity="1"><g transform="translate(290.840588, 185.757161)"><g><path d="M 8.441406 -1.746094 C 17.589844 -3.9375 23.523438 -18.4375 26.722656 -26.152344 C 27.8125 -29.003906 28.636719 -31.246094 29.164062 -32.460938 C 28.917969 -33.492188 28.050781 -33.695312 27.535156 -33.570312 C 27.40625 -33.539062 27.277344 -33.507812 27.308594 -33.378906 C 23.847656 -25.058594 16.574219 -8.191406 7.164062 -5.9375 C 3.332031 -5.429688 2.996094 -10.257812 3.925781 -16.066406 C 4.945312 -15.21875 6.484375 -15.042969 8.03125 -15.414062 C 12.382812 -16.589844 16.09375 -24.429688 16.816406 -28.824219 L 16.753906 -29.082031 C 16.984375 -29.820312 16.929688 -30.625 16.972656 -31.589844 C 16.757812 -35.898438 12.929688 -38.796875 8.933594 -37.839844 C 7.515625 -37.503906 6.0625 -36.746094 4.761719 -35.34375 C -1.964844 -28.148438 -7.929688 -10.367188 1.863281 -3.035156 C 3.742188 -1.441406 5.992188 -1.160156 8.441406 -1.746094 Z M 12.101562 -33.148438 C 12.617188 -33.273438 13.035156 -33.234375 13.382812 -32.910156 C 13.796875 -32.328125 13.851562 -31.523438 13.839844 -30.429688 C 13.019531 -25.328125 8.484375 -18.65625 5.90625 -18.039062 C 5.261719 -17.882812 4.8125 -18.050781 4.398438 -18.632812 C 6.171875 -25.460938 9.652344 -32.5625 12.101562 -33.148438 Z M 12.101562 -33.148438 "/></g></g></g><g fill="#f87c56" fill-opacity="1"><g transform="translate(316.23246, 179.681853)"><g><path d="M 21.671875 -32.441406 C 18.742188 -25.332031 14.96875 -14.890625 7.953125 -10.625 C 6.851562 -10.089844 6.109375 -9.773438 5.269531 -9.300781 C 8.734375 -24.4375 13.382812 -35.769531 14.554688 -40.550781 C 14.855469 -41.574219 10.890625 -43.898438 7.667969 -43.125 C 7.28125 -43.035156 6.636719 -42.878906 6.3125 -42.527344 C 5.472656 -42.054688 4.90625 -39.875 4.476562 -38.820312 C 0.800781 -25.128906 -7.671875 11.785156 -5.566406 25.722656 C -5.355469 27.171875 -4.195312 30.304688 -2.570312 31.414062 C -2.378906 31.640625 -2.316406 31.898438 -1.898438 31.933594 C -0.910156 32.652344 0.0546875 32.691406 0.957031 32.476562 C 7.273438 30.964844 10.980469 14 11.601562 9.761719 C 12.488281 4.917969 13.238281 -5.621094 7.566406 -7.671875 C 8.4375 -8.015625 9.054688 -8.296875 9.539062 -8.550781 C 17.785156 -13.386719 20.101562 -23.070312 23.429688 -31.363281 L 23.527344 -31.523438 C 23.023438 -32.492188 22.417969 -32.753906 22.03125 -32.660156 C 21.902344 -32.632812 21.773438 -32.601562 21.671875 -32.441406 Z M -0.464844 29.957031 C -0.835938 22.140625 1.457031 8.371094 4.328125 -5.261719 C 5.488281 -5.539062 6.550781 -5.65625 7.570312 -4.808594 C 13.023438 -0.253906 4.851562 28.820312 0.0820312 29.960938 C -0.046875 29.992188 -0.304688 30.054688 -0.464844 29.957031 Z M -0.464844 29.957031 "/></g></g></g><g clip-path="url(#451c63ba05)"><path fill="#f87c56" d="M 48.875 166.617188 L 60.910156 182.390625 C 60.910156 182.390625 71.875 158.175781 98.058594 149.847656 C 98.058594 149.847656 74.65625 154.585938 60.246094 173.121094 L 55.160156 166.488281 L 53.300781 164.109375 L 55.179688 161.144531 C 50.628906 160.886719 46.058594 161.050781 42.609375 156.28125 C 39.164062 151.507812 43.773438 138.550781 53.5 135.382812 C 53.925781 135.234375 54.367188 135.125 54.792969 135.015625 C 54.277344 139.289062 53.6875 144.871094 53.464844 145.445312 C 57.996094 134.441406 77.421875 94.140625 90.558594 123.035156 C 90.558594 123.035156 90.796875 121.984375 91 120.382812 C 103.9375 112.015625 107.308594 121.855469 107.476562 130.40625 C 84.476562 128.234375 68.261719 151.617188 66.03125 155.027344 L 66.015625 155.042969 L 65.957031 155.117188 C 65.828125 155.320312 65.757812 155.433594 65.757812 155.433594 L 67.136719 154.105469 C 82.210938 139.84375 97.25 137.300781 103.714844 136.894531 L 111.417969 147.730469 C 111.417969 147.730469 79.464844 155.230469 67.488281 182.207031 C 67.488281 182.207031 89.121094 156.261719 121.8125 152.628906 L 111.417969 135.457031 C 116.945312 111.925781 101.0625 107.777344 91.867188 112.21875 C 91.460938 112.402344 91.113281 112.515625 90.835938 112.589844 C 89.988281 108.351562 87.480469 104.441406 81.179688 104.425781 C 80.148438 104.425781 79.023438 104.515625 77.769531 104.738281 C 62.660156 107.429688 57.90625 122.261719 55.472656 130.1875 C 55.453125 130.242188 55.4375 130.332031 55.417969 130.425781 C 54.71875 130.519531 54.164062 130.609375 53.871094 130.648438 C 52.304688 130.851562 50.757812 131.199219 49.207031 131.699219 C 37.433594 135.53125 33.269531 149.148438 36.050781 156.980469 C 38.484375 163.851562 42.980469 165.34375 48.839844 166.597656 Z M 48.875 166.617188 " fill-opacity="1" fill-rule="evenodd"/></g></svg>