<svg xmlns="http://www.w3.org/2000/svg" xmlns:xlink="http://www.w3.org/1999/xlink" zoomAndPan="magnify" preserveAspectRatio="xMidYMid meet" version="1.0" viewBox="35 104.43 304.76 192"><defs><g/><clipPath id="a99f882625"><path d="M 114 218 L 291 218 L 291 273 L 114 273 Z M 114 218 " clip-rule="nonzero"/></clipPath><clipPath id="2102bfd4c3"><path d="M 125.421875 193.835938 L 290.835938 218.539062 L 279.207031 296.425781 L 113.789062 271.722656 Z M 125.421875 193.835938 " clip-rule="nonzero"/></clipPath><clipPath id="4630d35c0d"><path d="M 125.421875 193.835938 L 290.835938 218.539062 L 279.207031 296.425781 L 113.789062 271.722656 Z M 125.421875 193.835938 " clip-rule="nonzero"/></clipPath><clipPath id="db570701ba"><path d="M 35 104.425781 L 121.953125 104.425781 L 121.953125 182.425781 L 35 182.425781 Z M 35 104.425781 " clip-rule="nonzero"/></clipPath></defs><g clip-path="url(#a99f882625)"><g clip-path="url(#2102bfd4c3)"><g clip-path="url(#4630d35c0d)"><path fill="#f87c56" d="M 114.90625 267.371094 C 118.382812 262.960938 255.355469 209.90625 290.902344 219.371094 C 254.382812 222.132812 163.105469 253.636719 134.398438 269.148438 C 136.367188 269.257812 139.003906 269.125 142.636719 268.59375 C 141.546875 270.457031 131.425781 271.929688 126.960938 272.09375 C 119.769531 272.5625 111.828125 271.273438 114.902344 267.390625 Z M 114.90625 267.371094 " fill-opacity="1" fill-rule="nonzero"/></g></g></g><g fill="#f87c56" fill-opacity="1"><g transform="translate(49.681858, 243.457334)"><g><path d="M 46.316406 -56.460938 C 50.398438 -72.429688 47.097656 -92.488281 32.921875 -89.097656 C 31.246094 -88.695312 29.273438 -87.816406 27.011719 -86.457031 C 14.175781 -79.160156 -12.140625 -48.46875 -6.765625 -27.136719 C -3.644531 -14.664062 12.273438 -11.929688 21.566406 -12.382812 C 25.617188 -12.535156 29.835938 -13.132812 33.949219 -13.027344 C 36.265625 -13.039062 39.738281 -13.324219 38.054688 -8.96875 C 36.035156 -3.171875 26.285156 7.339844 21 8.601562 C 19.066406 9.066406 18.140625 8.605469 16.738281 7.304688 C 16.355469 6.851562 15.941406 6.816406 15.683594 6.878906 C 15.167969 7 15.0625 7.707031 15.503906 8.417969 C 17.394531 12.328125 20.816406 14.097656 25.070312 13.082031 C 30.355469 11.816406 35.8125 6.148438 38.808594 2.160156 C 41.8125 -2.371094 46.640625 -12.386719 39.710938 -16.859375 C 30.261719 -23.320312 5.613281 -14.699219 0.480469 -25.324219 C -5.722656 -38.152344 18.839844 -69.917969 24.382812 -74.652344 C 26.75 -76.71875 31.78125 -81.328125 35.90625 -82.316406 C 37.066406 -82.59375 38.15625 -82.582031 39.054688 -82.25 C 43.25 -80.664062 42.808594 -68.839844 39.960938 -57.394531 C 38.65625 -52.585938 33.726562 -35.597656 28.828125 -34.425781 L 28.183594 -34.269531 C 27.796875 -34.179688 27.570312 -33.988281 27.375 -33.667969 C 26.757812 -32.839844 27.554688 -32.347656 28.132812 -32.214844 C 29.128906 -32.042969 30.058594 -32.128906 30.960938 -32.347656 C 39.210938 -34.320312 44.507812 -49.214844 46.316406 -56.460938 Z M 46.316406 -56.460938 "/></g></g></g><g fill="#f87c56" fill-opacity="1"><g transform="translate(99.563396, 231.522582)"><g><path d="M 22.214844 -15.945312 C 21.769531 -16.65625 21.589844 -17.976562 21.742188 -20.191406 C 21.519531 -23.410156 21.835938 -29.480469 23.921875 -32.160156 C 24.796875 -33.050781 24.636719 -33.148438 23.648438 -33.867188 C 21.988281 -35.105469 20.417969 -35.410156 19.128906 -35.101562 C 18.613281 -34.980469 18.128906 -34.726562 17.546875 -34.316406 C 17.683594 -38.300781 17.339844 -42.578125 13.765625 -44.992188 C 12.804688 -45.582031 11.460938 -46.078125 10.171875 -45.769531 C 8.753906 -45.429688 7.390625 -44.285156 5.957031 -42.308594 C -0.265625 -34.140625 -8.503906 -4.78125 2.789062 -2.574219 C 3.65625 -2.375 4.234375 -2.238281 5.007812 -2.425781 C 5.265625 -2.484375 5.492188 -2.675781 5.75 -2.738281 C 8.859375 -5.117188 11.679688 -13.832031 14.035156 -21.074219 C 14.097656 -20.816406 14.128906 -20.6875 14.09375 -20.269531 C 14.410156 -16.667969 15.039062 -12.320312 18.203125 -10.488281 C 19.164062 -9.898438 20.1875 -9.601562 21.347656 -9.878906 C 28.308594 -11.542969 34.679688 -31.054688 36.363281 -35.410156 C 35.636719 -36.734375 35.25 -36.644531 34.21875 -36.394531 C 33.789062 -35.339844 26.429688 -16.542969 23.078125 -15.742188 C 22.820312 -15.679688 22.53125 -15.75 22.214844 -15.945312 Z M 11.6875 -36.59375 C 12.5 -37.742188 13.121094 -38.570312 13.765625 -38.726562 C 14.796875 -38.972656 15.546875 -36.972656 16.050781 -32.59375 C 15.105469 -31.414062 14.769531 -29.972656 14.433594 -28.527344 C 11.238281 -20.8125 7.613281 -9.179688 5.683594 -8.71875 C 3.507812 -9.832031 7.953125 -29.976562 11.6875 -36.59375 Z M 11.6875 -36.59375 "/></g></g></g><g fill="#f87c56" fill-opacity="1"><g transform="translate(131.142139, 223.966991)"><g><path d="M -1.109375 -8.046875 C -0.304688 -4.695312 1.160156 -0.277344 5.542969 -1.324219 C 6.058594 -1.449219 6.511719 -1.832031 6.714844 -2.695312 C 9.535156 -11.410156 22.1875 -45.101562 28.882812 -49.019531 C 30.527344 -49.546875 29.101562 -51.523438 26.652344 -50.9375 C 25.621094 -50.691406 24.519531 -50.15625 23.738281 -48.878906 C 15.960938 -39.796875 6.710938 -11.824219 4.707031 -7.667969 C 3.5 -21.824219 7.097656 -34.132812 10.105469 -39.210938 C 10.234375 -39.242188 8.445312 -40.449219 6.421875 -40.375 L 5.519531 -40.160156 C -0.925781 -38.617188 -2.242188 -13.363281 -1.109375 -8.046875 Z M -1.109375 -8.046875 "/></g></g></g><g fill="#f87c56" fill-opacity="1"><g transform="translate(155.116212, 218.230909)"><g><path d="M -1.109375 -8.046875 C -0.304688 -4.695312 1.160156 -0.277344 5.542969 -1.324219 C 6.058594 -1.449219 6.511719 -1.832031 6.714844 -2.695312 C 9.535156 -11.410156 22.1875 -45.101562 28.882812 -49.019531 C 30.527344 -49.546875 29.101562 -51.523438 26.652344 -50.9375 C 25.621094 -50.691406 24.519531 -50.15625 23.738281 -48.878906 C 15.960938 -39.796875 6.710938 -11.824219 4.707031 -7.667969 C 3.5 -21.824219 7.097656 -34.132812 10.105469 -39.210938 C 10.234375 -39.242188 8.445312 -40.449219 6.421875 -40.375 L 5.519531 -40.160156 C -0.925781 -38.617188 -2.242188 -13.363281 -1.109375 -8.046875 Z M -1.109375 -8.046875 "/></g></g></g><g fill="#f87c56" fill-opacity="1"><g transform="translate(179.090285, 212.494826)"><g><path d="M 1.957031 25.832031 C 3.117188 25.554688 4.441406 24.828125 5.667969 24.261719 C 19.246094 16.652344 22.433594 -18.449219 24.542969 -30.128906 C 25.085938 -32.984375 25.597656 -35.96875 26.171875 -38.695312 C 26.554688 -41.648438 23.246094 -41.8125 21.183594 -41.316406 C 20.152344 -41.070312 19.152344 -40.695312 19.011719 -39.570312 C 17.339844 -32.902344 8.984375 -4.601562 4.957031 -3.773438 C 1.703125 -3.132812 4.921875 -19.300781 5.257812 -20.746094 C 6.234375 -25.203125 7.675781 -31.136719 9.773438 -34.90625 C 10.359375 -35.867188 10.496094 -36.445312 9.605469 -37.320312 C 8.398438 -38.941406 6.410156 -39.28125 4.476562 -38.820312 C 3.574219 -38.601562 3.210938 -37.835938 2.882812 -36.9375 C -0.859375 -29.230469 -4.105469 -13.734375 -1.582031 -5.480469 C -0.714844 -2.417969 1.632812 0.5625 5.402344 -0.203125 C 10.621094 -1.179688 14.3125 -16.507812 15.867188 -20.832031 C 13.714844 -5.324219 9.511719 19.253906 -1.183594 21.816406 C -5.4375 22.832031 -7.46875 20.046875 -8.847656 16.5625 C -9.191406 15.691406 -9.574219 15.238281 -10.378906 15.292969 C -11.339844 15.25 -10.773438 16.476562 -10.492188 17.089844 C -8.492188 22.609375 -4.488281 27.375 1.957031 25.832031 Z M 1.957031 25.832031 "/></g></g></g><g fill="#f87c56" fill-opacity="1"><g transform="translate(209.637886, 205.185949)"><g><path d="M 36.253906 -81.988281 L 37.15625 -82.207031 C 47.167969 -83.648438 35.421875 -47.3125 27.984375 -43.082031 C 27.628906 -42.859375 28.269531 -42.46875 29.300781 -42.714844 C 30.589844 -43.023438 32.65625 -44.0625 35.066406 -47.09375 C 41.769531 -54.964844 47.753906 -71.523438 44.640625 -81.679688 C 42.773438 -87.773438 38.539062 -88.394531 33.253906 -87.132812 C 17.785156 -83.429688 4.054688 -60.523438 -0.0234375 -38.832031 C -3.503906 -19.195312 1.195312 -0.695312 15.324219 0.832031 C 16.964844 0.847656 18.605469 0.863281 20.40625 0.433594 C 31.492188 -2.21875 41.472656 -16.328125 46.589844 -26.273438 C 46.882812 -26.753906 47.734375 -28.320312 46.867188 -28.519531 C 46.578125 -28.585938 46.160156 -28.625 45.902344 -28.5625 C 45.132812 -28.378906 44.542969 -27.417969 44.019531 -26.75 C 39.4375 -18.566406 31.578125 -7.554688 22.300781 -5.335938 C 18.691406 -4.472656 15.386719 -5.179688 12.964844 -7.328125 C -5.070312 -22.90625 18.597656 -77.765625 36.253906 -81.988281 Z M 36.253906 -81.988281 "/></g></g></g><g fill="#f87c56" fill-opacity="1"><g transform="translate(256.039311, 194.083855)"><g><path d="M 37.507812 -37.457031 C 37.34375 -37.007812 35.035156 -31.277344 32.671875 -26.351562 L 32.472656 -26.03125 C 31.390625 -23.726562 24.664062 -10.261719 22.730469 -9.800781 C 22.601562 -9.769531 22.441406 -9.867188 22.441406 -9.867188 C 20.78125 -11.105469 26.4375 -33.035156 26.726562 -36.375 C 26.914062 -39.007812 23.433594 -41.039062 20.46875 -40.328125 C 19.179688 -40.019531 17.882812 -39.164062 17.289062 -37.660156 C 12.179688 -28.261719 8.234375 -19.6875 4.863281 -10.429688 C 6.722656 -28.863281 15.144531 -57.453125 19.453125 -63.933594 C 20.367188 -65.242188 16.828125 -68.074219 13.347656 -67.242188 C 10.769531 -66.625 10.175781 -65.121094 9.378906 -62.75 C 5.425781 -50.222656 -2.476562 -18.894531 -1.0625 -6.152344 C -0.769531 -3.222656 0.648438 -0.699219 4.511719 -1.078125 C 8.128906 -12.164062 13.859375 -25.800781 19.128906 -35.101562 C 17.597656 -30.101562 11.335938 -5.027344 20.917969 -5.414062 C 21.335938 -5.378906 21.625 -5.308594 22.140625 -5.433594 C 25.621094 -6.265625 32.347656 -19.730469 33.828125 -23.21875 C 36.644531 -28.527344 38.605469 -34.582031 39.492188 -36.566406 C 38.988281 -37.535156 38.378906 -37.800781 37.863281 -37.675781 C 37.734375 -37.644531 37.605469 -37.617188 37.507812 -37.457031 Z M 37.507812 -37.457031 "/></g></g></g><g fill="#f87c56" fill-opacity="1"><g transform="translate(290.840377, 185.757286)"><g><path d="M 8.441406 -1.746094 C 17.589844 -3.9375 23.523438 -18.4375 26.722656 -26.152344 C 27.8125 -29.003906 28.636719 -31.246094 29.164062 -32.460938 C 28.917969 -33.492188 28.050781 -33.695312 27.535156 -33.570312 C 27.40625 -33.539062 27.277344 -33.507812 27.308594 -33.378906 C 23.847656 -25.058594 16.574219 -8.191406 7.164062 -5.9375 C 3.332031 -5.429688 2.996094 -10.257812 3.925781 -16.066406 C 4.945312 -15.21875 6.484375 -15.042969 8.03125 -15.414062 C 12.382812 -16.589844 16.09375 -24.429688 16.816406 -28.824219 L 16.753906 -29.082031 C 16.984375 -29.820312 16.929688 -30.625 16.972656 -31.589844 C 16.757812 -35.898438 12.929688 -38.796875 8.933594 -37.839844 C 7.515625 -37.503906 6.0625 -36.746094 4.761719 -35.34375 C -1.964844 -28.148438 -7.929688 -10.367188 1.863281 -3.035156 C 3.742188 -1.441406 5.992188 -1.160156 8.441406 -1.746094 Z M 12.101562 -33.148438 C 12.617188 -33.273438 13.035156 -33.234375 13.382812 -32.910156 C 13.796875 -32.328125 13.851562 -31.523438 13.839844 -30.429688 C 13.019531 -25.328125 8.484375 -18.65625 5.90625 -18.039062 C 5.261719 -17.882812 4.8125 -18.050781 4.398438 -18.632812 C 6.171875 -25.460938 9.652344 -32.5625 12.101562 -33.148438 Z M 12.101562 -33.148438 "/></g></g></g><g fill="#f87c56" fill-opacity="1"><g transform="translate(316.232249, 179.681978)"><g><path d="M 21.671875 -32.441406 C 18.742188 -25.332031 14.96875 -14.890625 7.953125 -10.625 C 6.851562 -10.089844 6.109375 -9.773438 5.269531 -9.300781 C 8.734375 -24.4375 13.382812 -35.769531 14.554688 -40.550781 C 14.855469 -41.574219 10.890625 -43.898438 7.667969 -43.125 C 7.28125 -43.035156 6.636719 -42.878906 6.3125 -42.527344 C 5.472656 -42.054688 4.90625 -39.875 4.476562 -38.820312 C 0.800781 -25.128906 -7.671875 11.785156 -5.566406 25.722656 C -5.355469 27.171875 -4.195312 30.304688 -2.570312 31.414062 C -2.378906 31.640625 -2.316406 31.898438 -1.898438 31.933594 C -0.910156 32.652344 0.0546875 32.691406 0.957031 32.476562 C 7.273438 30.964844 10.980469 14 11.601562 9.761719 C 12.488281 4.917969 13.238281 -5.621094 7.566406 -7.671875 C 8.4375 -8.015625 9.054688 -8.296875 9.539062 -8.550781 C 17.785156 -13.386719 20.101562 -23.070312 23.429688 -31.363281 L 23.527344 -31.523438 C 23.023438 -32.492188 22.417969 -32.753906 22.03125 -32.660156 C 21.902344 -32.632812 21.773438 -32.601562 21.671875 -32.441406 Z M -0.464844 29.957031 C -0.835938 22.140625 1.457031 8.371094 4.328125 -5.261719 C 5.488281 -5.539062 6.550781 -5.65625 7.570312 -4.808594 C 13.023438 -0.253906 4.851562 28.820312 0.0820312 29.960938 C -0.046875 29.992188 -0.304688 30.054688 -0.464844 29.957031 Z M -0.464844 29.957031 "/></g></g></g><g clip-path="url(#db570701ba)"><path fill="#f87c56" d="M 48.878906 166.617188 L 60.914062 182.390625 C 60.914062 182.390625 71.875 158.175781 98.0625 149.847656 C 98.0625 149.847656 74.660156 154.582031 60.25 173.121094 L 55.164062 166.488281 L 53.300781 164.109375 L 55.183594 161.144531 C 50.628906 160.886719 46.0625 161.050781 42.613281 156.277344 C 39.167969 151.507812 43.777344 138.550781 53.503906 135.382812 C 53.929688 135.234375 54.371094 135.125 54.796875 135.015625 C 54.277344 139.289062 53.6875 144.871094 53.46875 145.445312 C 58 134.441406 77.421875 94.144531 90.5625 123.035156 C 90.5625 123.035156 90.800781 121.984375 91.003906 120.382812 C 103.941406 112.015625 107.3125 121.855469 107.476562 130.40625 C 84.480469 128.234375 68.265625 151.617188 66.035156 155.027344 L 66.015625 155.042969 L 65.960938 155.117188 C 65.832031 155.320312 65.757812 155.429688 65.757812 155.429688 L 67.140625 154.105469 C 82.214844 139.839844 97.25 137.296875 103.71875 136.894531 L 111.421875 147.726562 C 111.421875 147.726562 79.46875 155.226562 67.492188 182.207031 C 67.492188 182.207031 89.125 156.261719 121.8125 152.628906 L 111.421875 135.457031 C 116.949219 111.925781 101.066406 107.777344 91.871094 112.21875 C 91.464844 112.402344 91.113281 112.515625 90.839844 112.589844 C 89.992188 108.351562 87.484375 104.441406 81.183594 104.425781 C 80.152344 104.425781 79.027344 104.515625 77.773438 104.738281 C 62.664062 107.429688 57.910156 122.261719 55.476562 130.1875 C 55.457031 130.242188 55.441406 130.332031 55.421875 130.425781 C 54.722656 130.519531 54.167969 130.609375 53.875 130.648438 C 52.308594 130.847656 50.757812 131.199219 49.210938 131.695312 C 37.4375 135.53125 33.273438 149.148438 36.054688 156.980469 C 38.488281 163.851562 42.984375 165.34375 48.84375 166.597656 Z M 48.878906 166.617188 " fill-opacity="1" fill-rule="evenodd"/></g></svg>